<svg width="10" height="12" viewBox="0 0 10 12" fill="none" xmlns="http://www.w3.org/2000/svg">
<g clip-path="url(#clip0_469_231)">
<path d="M8.48292 0.933856C7.93862 0.302783 6.95472 0.0322266 5.69601 0.0322266H2.04288C1.91834 0.0322313 1.79789 0.0774268 1.70318 0.159688C1.60847 0.241948 1.54572 0.355879 1.5262 0.480995L0.00510693 10.2943C-0.0251274 10.4878 0.122177 10.663 0.31499 10.663H2.5703L3.13671 7.00852L3.11913 7.12296C3.15948 6.86464 3.37667 6.67411 3.63386 6.67411H4.70558C6.81097 6.67411 8.45952 5.80423 8.94108 3.28784C8.95538 3.21342 8.96776 3.14098 8.97847 3.07021C8.91769 3.03747 8.91769 3.03747 8.97847 3.07021C9.12187 2.14013 8.97749 1.50703 8.48292 0.933856Z" fill="#27346A"/>
<path d="M3.99968 2.73517C4.06133 2.7053 4.12877 2.68983 4.19706 2.68987H7.06104C7.40019 2.68987 7.71651 2.71232 8.00558 2.75964C8.08646 2.77276 8.16693 2.78843 8.24687 2.80661C8.36016 2.83204 8.47215 2.86317 8.58241 2.89987C8.72452 2.94815 8.85686 3.00437 8.97851 3.07021C9.12187 2.13978 8.97749 1.50703 8.48292 0.933856C7.93831 0.302783 6.95472 0.0322266 5.69601 0.0322266H2.04257C1.78534 0.0322266 1.56651 0.222717 1.5262 0.480995L0.00510714 10.2939C-0.0251272 10.4877 0.122177 10.6627 0.314677 10.6627H2.5703L3.74542 3.08245C3.75697 3.00794 3.78615 2.93741 3.83044 2.87691C3.87473 2.81642 3.93281 2.76777 3.99968 2.73517Z" fill="#27346A"/>
<path d="M8.94131 3.28794C8.45974 5.80397 6.81123 6.67421 4.7058 6.67421H3.63377C3.37658 6.67421 3.15935 6.86474 3.11939 7.12305L2.41474 11.667C2.38841 11.8363 2.51716 11.9898 2.6856 11.9898H4.58677C4.69568 11.9897 4.801 11.9502 4.8838 11.8782C4.96659 11.8063 5.02143 11.7066 5.03845 11.5972L5.05697 11.4986L5.41529 9.1886L5.43837 9.06093C5.45539 8.95152 5.51023 8.85187 5.59302 8.77991C5.6758 8.70795 5.78112 8.66839 5.89002 8.66835H6.17455C8.01623 8.66835 9.4583 7.90727 9.8797 5.7061C10.0556 4.78623 9.96459 4.01823 9.49927 3.47879C9.35814 3.3154 9.18287 3.18046 8.97869 3.07031C8.96763 3.14144 8.95564 3.21352 8.94131 3.28794Z" fill="#2790C3"/>
<path d="M8.47467 2.86593C8.39958 2.84363 8.32378 2.82388 8.2474 2.80672C8.16743 2.78884 8.08696 2.77328 8.00611 2.76008C7.71674 2.71243 7.40064 2.68994 7.06119 2.68994H4.19756C4.12922 2.68978 4.06173 2.7054 4.00018 2.7356C3.93323 2.7681 3.87509 2.81672 3.83078 2.87723C3.78647 2.93774 3.75733 3.00833 3.74588 3.08288L3.13721 7.00863L3.11963 7.12307C3.15967 6.86475 3.37686 6.67422 3.63408 6.67422H4.70611C6.8115 6.67422 8.46002 5.80434 8.94158 3.28796C8.95592 3.21353 8.96795 3.14141 8.979 3.07033C8.85705 3.00484 8.72506 2.94826 8.58291 2.9003C8.54704 2.8882 8.51097 2.87675 8.47471 2.86593" fill="#1F264F"/>
</g>
<defs>
<clipPath id="clip0_469_231">
<rect width="10" height="12" fill="white"/>
</clipPath>
</defs>
</svg>
